HIERARCHY
ROOT Hips
{
	OFFSET -3.958830 18.904000 13.208200
	CHANNELS 6 Xposition Yposition Zposition Zrotation Yrotation Xrotation 
	JOINT LHipJoint
	{
		OFFSET 0.000000 0.000000 0.000000
		CHANNELS 3 Zrotation Yrotation Xrotation
		JOINT LeftUpLeg
		{
			OFFSET 1.800000 -1.400000 0.085000
			CHANNELS 3 Zrotation Yrotation Xrotation
			JOINT LeftLeg
			{
				OFFSET 2.215000 -6.000000 0.000000
				CHANNELS 3 Zrotation Yrotation Xrotation
				JOINT LeftFoot
				{
					OFFSET 2.500000 -6.900000 0.000000
					CHANNELS 3 Zrotation Yrotation Xrotation
					JOINT LeftToeBase
					{
						OFFSET 0.200000 -0.500000 1.950000
						CHANNELS 3 Zrotation Yrotation Xrotation
						End Site
						{
							OFFSET 0.000000 0.000000 0.000000
						}
					}
				}
			}
		}
	}
	JOINT RHipJoint
	{
		OFFSET 0.000000 0.000000 0.000000
		CHANNELS 3 Zrotation Yrotation Xrotation
		JOINT RightUpLeg
		{
			OFFSET -1.800000 -1.400000 0.085000
			CHANNELS 3 Zrotation Yrotation Xrotation
			JOINT RightLeg
			{
				OFFSET -2.215000 -6.000000 0.000000
				CHANNELS 3 Zrotation Yrotation Xrotation
				JOINT RightFoot
				{
					OFFSET -2.500000 -6.900000 0.000000
					CHANNELS 3 Zrotation Yrotation Xrotation
					JOINT RightToeBase
					{
						OFFSET -0.200000 -0.500000 1.950000
						CHANNELS 3 Zrotation Yrotation Xrotation
						End Site
						{
							OFFSET 0.000000 0.000000 0.000000
						}
					}
				}
			}
		}
	}
	JOINT LowerBack
	{
		OFFSET 0.000000 0.000000 0.000000
		CHANNELS 3 Zrotation Yrotation Xrotation
		JOINT Spine
		{
			OFFSET -0.087000 1.940000 -0.288900
			CHANNELS 3 Zrotation Yrotation Xrotation
			JOINT Spine1
			{
				OFFSET 0.000000 1.950000 0.060000
				CHANNELS 3 Zrotation Yrotation Xrotation
				JOINT Neck
				{
					OFFSET 0.000000 0.000000 0.000000
					CHANNELS 3 Zrotation Yrotation Xrotation
					JOINT Neck1
					{
						OFFSET 0.000000 1.600000 0.340000
						CHANNELS 3 Zrotation Yrotation Xrotation
						JOINT Head
						{
							OFFSET 0.000000 1.667000 -0.240000
							CHANNELS 3 Zrotation Yrotation Xrotation
							End Site
							{
								OFFSET 0.000000 0.000000 0.000000
							}
						}
					}
				}
				JOINT LeftShoulder
				{
					OFFSET 0.000000 0.000000 0.000000
					CHANNELS 3 Zrotation Yrotation Xrotation
					JOINT LeftArm
					{
						OFFSET 2.700000 1.550000 -0.730000
						CHANNELS 3 Zrotation Yrotation Xrotation
						JOINT LeftForeArm
						{
							OFFSET 5.450000 0.000000 0.000000
							CHANNELS 3 Zrotation Yrotation Xrotation
							JOINT LeftHand
							{
								OFFSET 3.450000 0.000000 0.000000
								CHANNELS 3 Zrotation Yrotation Xrotation
								JOINT LeftHandIndex1
								{
									OFFSET 0.750000 0.000000 0.000000
									CHANNELS 3 Zrotation Yrotation Xrotation
									End Site
									{
										OFFSET 0.000000 0.000000 0.000000
									}
								}
							}
						}
					}
				}
				JOINT RightShoulder
				{
					OFFSET 0.000000 0.000000 0.000000
					CHANNELS 3 Zrotation Yrotation Xrotation
					JOINT RightArm
					{
						OFFSET -2.700000 1.550000 -0.730000
						CHANNELS 3 Zrotation Yrotation Xrotation
						JOINT RightForeArm
						{
							OFFSET -5.450000 0.000000 0.000000
							CHANNELS 3 Zrotation Yrotation Xrotation
							JOINT RightHand
							{
								OFFSET -3.450000 0.000000 0.000000
								CHANNELS 3 Zrotation Yrotation Xrotation
								JOINT RightHandIndex1
								{
									OFFSET -0.750000 0.000000 0.000000
									CHANNELS 3 Zrotation Yrotation Xrotation
									End Site
									{
										OFFSET 0.000000 0.000000 0.000000
									}
								}
							}
						}
					}
				}
			}
		}
	}
}
MOTION
Frames: 4
Frame Time: 0.016667
-0.966620 17.238870 -10.768700 2.774648 -7.281968 22.259895 -15.727587 11.110275 5.514558 26.694201 -5.927937 -40.658608 -21.319792 15.029992 29.952243 0.328782 8.702095 1.344556 0.232760 0.195310 0.049900 18.284961 -7.492407 3.827753 -33.164193 0.549629 -41.429552 -0.056528 -2.830119 4.469891 -0.124822 -2.674683 3.173888 0.171080 0.193180 0.230930 -2.920557 -3.848435 -9.334107 4.323579 -2.524862 21.600571 -4.395414 0.117169 4.684006 2.331922 -6.415444 -19.331918 -11.195179 0.707437 17.308787 0.085590 -1.073450 -18.269680 10.948023 -27.636919 -2.539849 16.472948 -27.446231 -6.091076 13.529793 -19.774925 -1.312398 -3.912098 3.116532 0.289760 0.054600 0.106150 0.158940 -12.881553 34.718733 13.576107 -15.247463 10.945898 -2.420031 -9.648042 2.553189 -0.379331 2.788728 -0.845084 -0.082880 0.205530 0.022480 0.016030 
-1.010280 17.228400 -10.725300 2.320924 -8.149695 20.618110 -15.731480 11.307868 5.379186 26.923314 -5.457844 -38.702737 -20.910604 15.402515 30.680892 0.313420 8.845973 1.260395 0.288070 0.266130 0.095520 18.245387 -7.611366 3.731325 -32.469651 0.587538 -40.330322 0.319091 -2.841991 4.572038 -0.145874 -2.652614 3.157659 0.216430 0.154580 0.247390 -2.856646 -3.950033 -9.255678 3.917681 -2.197458 21.496268 -4.256173 0.296184 5.826183 2.052006 -5.842131 -18.512962 -10.242049 0.163419 18.212364 -0.280430 -1.065530 -19.284040 10.552280 -27.409891 -3.471044 14.657326 -30.007936 -6.539889 15.580662 -25.990337 -2.189619 -3.852658 3.211190 0.302100 0.046230 0.140340 0.156310 -12.318601 34.080665 14.797664 -11.790869 10.368441 -1.518601 -9.199798 3.098147 -0.327611 2.724563 -0.881097 -0.064390 0.198610 0.003260 0.003410 
-1.049240 17.225680 -10.664710 1.270299 -8.579880 18.858469 -15.752929 11.496457 5.246471 27.562393 -4.800372 -36.936855 -19.778327 15.836374 32.061571 0.284345 9.049756 1.151317 0.348210 0.349150 0.152620 18.195667 -7.771862 3.574842 -31.374274 0.737901 -39.072684 1.247483 -2.967213 5.362364 -0.159352 -2.633576 3.137652 0.275700 0.125810 0.268050 -2.750272 -3.997922 -9.164966 3.830536 -1.715154 21.166282 -2.932440 0.328053 7.092893 1.583544 -4.844616 -17.118690 -8.621403 0.277843 19.256081 -0.947280 -0.159210 -20.249700 9.299928 -27.484531 -3.735634 11.608349 -32.100706 -6.889799 19.033430 -37.147489 -4.382955 -3.777879 3.269724 0.308430 0.054790 0.173890 0.151600 -10.743349 32.991896 15.462251 -7.963405 9.738420 -1.044813 -9.774868 6.593199 -0.327059 2.537167 -1.028905 -0.051750 0.199400 -0.015720 -0.014740 
-1.087280 17.237040 -10.583810 -0.064533 -8.819575 17.282112 -15.768153 11.741803 5.038573 27.952703 -4.117440 -35.189495 -17.454128 15.848574 33.616455 0.226024 9.115531 1.094834 0.371650 0.384410 0.204850 18.144661 -8.009029 3.395238 -29.830383 0.917598 -38.068940 2.059007 -3.240651 7.021365 -0.150918 -2.618412 3.124954 0.307480 0.111640 0.292130 -2.643539 -3.988021 -9.031976 3.782649 -1.475591 20.508562 -1.418869 0.026990 7.936660 1.508222 -3.304390 -15.553109 -6.195173 1.156000 20.370600 -2.377970 1.950340 -20.418120 5.986687 -28.122442 -2.888305 6.527265 -33.151024 -7.178597 26.592214 -52.765341 -10.532316 -3.704248 3.157374 0.307760 0.087000 0.190660 0.132200 -7.882002 31.608642 15.215487 -2.609421 9.377250 -1.327478 -11.929804 12.803375 -0.562060 2.298969 -1.243800 -0.053540 0.187910 -0.020770 -0.046180 
